{
  "extensionsUsed": [
    "KHR_materials_transmission",
    "KHR_materials_clearcoat",
    "KHR_materials_ior",
    "KHR_materials_specular",
    "KHR_materials_emissive_strength",
    "KHR_texture_transform"
  ],
  "accessors": [
    {
      "bufferView": 0,
      "componentType": 5126,
      "count": 480,
      "type": "VEC3",
      "max": [
        0.172,
        0.092,
        -0.009
      ],
      "min": [
        -0.172,
        0.02,
        -0.155
      ]
    },
    {
      "bufferView": 1,
      "componentType": 5125,
      "count": 720,
      "type": "SCALAR",
      "max": [
        479.0
      ],
      "min": [
        0.0
      ]
    },
    {
      "bufferView": 2,
      "componentType": 5126,
      "count": 480,
      "type": "VEC3",
      "max": [
        1.0,
        1.0,
        1.0
      ],
      "min": [
        -1.0,
        -1.0,
        -1.0
      ]
    },
    {
      "bufferView": 3,
      "componentType": 5126,
      "count": 480,
      "type": "VEC2",
      "max": [
        0.98634005,
        0.99853516
      ],
      "min": [
        0.0,
        0.0
      ]
    },
    {
      "bufferView": 4,
      "componentType": 5126,
      "count": 7416,
      "type": "VEC3",
      "max": [
        0.179,
        0.1005,
        0.0
      ],
      "min": [
        -0.179,
        0.0145,
        -0.009
      ]
    },
    {
      "bufferView": 5,
      "componentType": 5125,
      "count": 40632,
      "type": "SCALAR",
      "max": [
        7415.0
      ],
      "min": [
        0.0
      ]
    },
    {
      "bufferView": 6,
      "componentType": 5126,
      "count": 7416,
      "type": "VEC3",
      "max": [
        1.0,
        1.0,
        1.0
      ],
      "min": [
        -1.0,
        -1.0,
        -1.0
      ]
    },
    {
      "bufferView": 7,
      "componentType": 5126,
      "count": 7416,
      "type": "VEC2",
      "max": [
        0.53133464,
        0.99853516
      ],
      "min": [
        0.0024815346,
        0.0
      ]
    },
    {
      "bufferView": 8,
      "componentType": 5126,
      "count": 762,
      "type": "VEC3",
      "max": [
        0.1875,
        0.11,
        0.0
      ],
      "min": [
        -0.1875,
        0.0,
        -0.17
      ]
    },
    {
      "bufferView": 9,
      "componentType": 5125,
      "count": 1644,
      "type": "SCALAR",
      "max": [
        761.0
      ],
      "min": [
        0.0
      ]
    },
    {
      "bufferView": 10,
      "componentType": 5126,
      "count": 762,
      "type": "VEC3",
      "max": [
        1.0,
        1.0,
        1.0
      ],
      "min": [
        -1.0,
        -1.0,
        -1.0
      ]
    },
    {
      "bufferView": 11,
      "componentType": 5126,
      "count": 762,
      "type": "VEC2",
      "max": [
        0.99853516,
        0.99853516
      ],
      "min": [
        0.0,
        0.0
      ]
    },
    {
      "bufferView": 12,
      "componentType": 5126,
      "count": 762,
      "type": "VEC2",
      "max": [
        187.5,
        170.0
      ],
      "min": [
        -187.5,
        0.0
      ]
    }
  ],
  "asset": {
    "version": "2.0"
  },
  "buffers": [
    {
      "uri": "data:application/octet-stream;base64,",
      "byteLength": 5760
    },
    {
      "uri": "data:application/octet-stream;base64,",
      "byteLength": 2880
    },
    {
      "uri": "data:application/octet-stream;base64,",
      "byteLength": 5760
    },
    {
      "uri": "data:application/octet-stream;base64,",
      "byteLength": 3840
    },
    {
      "uri": "data:application/octet-stream;base64,",
      "byteLength": 88992
    },
    {
      "uri": "data:application/octet-stream;base64,",
      "byteLength": 162528
    },
    {
      "uri": "data:application/octet-stream;base64,",
      "byteLength": 88992
    },
    {
      "uri": "data:application/octet-stream;base64,",
      "byteLength": 59328
    },
    {
      "uri": "data:application/octet-stream;base64,",
      "byteLength": 9144
    },
    {
      "uri": "data:application/octet-stream;base64,",
      "byteLength": 6576
    },
    {
      "uri": "data:application/octet-stream;base64,",
      "byteLength": 9144
    },
    {
      "uri": "data:application/octet-stream;base64,",
      "byteLength": 6096
    },
    {
      "uri": "data:application/octet-stream;base64,",
      "byteLength": 6096
    },
    {
      "uri": "data:application/octet-stream;base64,",
      "byteLength": 270604
    }
  ],
  "bufferViews": [
    {
      "buffer": 0,
      "byteLength": 5760,
      "target": 34962
    },
    {
      "buffer": 1,
      "byteLength": 2880,
      "target": 34963
    },
    {
      "buffer": 2,
      "byteLength": 5760,
      "target": 34962
    },
    {
      "buffer": 3,
      "byteLength": 3840,
      "target": 34962
    },
    {
      "buffer": 4,
      "byteLength": 88992,
      "target": 34962
    },
    {
      "buffer": 5,
      "byteLength": 162528,
      "target": 34963
    },
    {
      "buffer": 6,
      "byteLength": 88992,
      "target": 34962
    },
    {
      "buffer": 7,
      "byteLength": 59328,
      "target": 34962
    },
    {
      "buffer": 8,
      "byteLength": 9144,
      "target": 34962
    },
    {
      "buffer": 9,
      "byteLength": 6576,
      "target": 34963
    },
    {
      "buffer": 10,
      "byteLength": 9144,
      "target": 34962
    },
    {
      "buffer": 11,
      "byteLength": 6096,
      "target": 34962
    },
    {
      "buffer": 12,
      "byteLength": 6096,
      "target": 34962
    },
    {
      "buffer": 13,
      "byteLength": 270604
    }
  ],
  "images": [
    {
      "mimeType": "image/png",
      "bufferView": 13
    }
  ],
  "materials": [
    {
      "name": "Custom (1)",
      "extensions": {
        "KHR_materials_transmission": {},
        "KHR_materials_clearcoat": {},
        "KHR_materials_ior": {
          "ior": 1.0
        },
        "KHR_materials_specular": {
          "specularFactor": 0.5,
          "specularColorFactor": [
            1.0,
            1.0,
            1.0
          ]
        }
      },
      "pbrMetallicRoughness": {
        "baseColorFactor": [
          0.7592996,
          0.62534475,
          0.40454084,
          1.0
        ],
        "metallicFactor": 0.0
      }
    },
    {
      "name": "Custom",
      "extensions": {
        "KHR_materials_transmission": {},
        "KHR_materials_clearcoat": {},
        "KHR_materials_ior": {
          "ior": 1.0
        },
        "KHR_materials_specular": {
          "specularFactor": 0.5,
          "specularColorFactor": [
            1.0,
            1.0,
            1.0
          ]
        }
      },
      "pbrMetallicRoughness": {
        "baseColorFactor": [
          0.8831797,
          0.5668098,
          0.5668098,
          1.0
        ],
        "metallicFactor": 0.0
      }
    },
    {
      "name": "Beech light",
      "extensions": {
        "KHR_materials_transmission": {},
        "KHR_materials_clearcoat": {},
        "KHR_materials_ior": {
          "ior": 1.52
        },
        "KHR_materials_specular": {
          "specularFactor": 0.5,
          "specularColorFactor": [
            1.0,
            1.0,
            1.0
          ]
        }
      },
      "pbrMetallicRoughness": {
        "baseColorTexture": {
          "index": 0,
          "texCoord": 1,
          "extensions": {
            "KHR_texture_transform": {
              "offset": [
                0.0,
                1.0
              ],
              "scale": [
                0.01,
                -0.01
              ]
            }
          }
        },
        "metallicFactor": 0.0
      }
    }
  ],
  "meshes": [
    {
      "primitives": [
        {
          "attributes": {
            "POSITION": 0,
            "NORMAL": 2,
            "TEXCOORD_0": 3
          },
          "indices": 1,
          "material": 0
        }
      ]
    },
    {
      "primitives": [
        {
          "attributes": {
            "POSITION": 4,
            "NORMAL": 6,
            "TEXCOORD_0": 7
          },
          "indices": 5,
          "material": 1
        }
      ]
    },
    {
      "primitives": [
        {
          "attributes": {
            "POSITION": 8,
            "NORMAL": 10,
            "TEXCOORD_0": 11,
            "TEXCOORD_1": 12
          },
          "indices": 9,
          "material": 2
        }
      ]
    }
  ],
  "nodes": [
    {
      "mesh": 0,
      "name": "drawer"
    },
    {
      "children": [
        0
      ],
      "name": "drawer"
    },
    {
      "children": [
        1,
        4,
        6
      ],
      "name": "3D"
    },
    {
      "mesh": 1,
      "name": "front"
    },
    {
      "children": [
        3
      ],
      "name": "front"
    },
    {
      "mesh": 2,
      "name": "box"
    },
    {
      "children": [
        5
      ],
      "name": "box"
    }
  ],
  "samplers": [
    {
      "magFilter": 9729,
      "minFilter": 9729
    }
  ],
  "scene": 0,
  "scenes": [
    {
      "nodes": [
        2
      ],
      "extensions": {}
    }
  ],
  "textures": [
    {
      "sampler": 0,
      "source": 0
    }
  ],
  "extensions": {}
}